<svg version="1.1" id="Layer_1" xmlns="http://www.w3.org/2000/svg" xmlns:xlink="http://www.w3.org/1999/xlink" x="0px" y="0px" width="93.323px" height="48.773px" viewBox="0 0 93.323 48.773" enable-background="new 0 0 93.323 48.773" xml:space="preserve">
<g>
	<path fill="#FFFFFF" d="M24.386,48.688c-0.226,0-0.468-0.094-0.729-0.279L0.365,25.119c-0.487-0.487-0.487-0.975,0-1.462 L23.658,0.365c0.483-0.487,0.971-0.487,1.458,0l7.088,7.089c0.487,0.49,0.487,0.978,0,1.465L16.679,24.387l15.524,15.468 c0.487,0.491,0.487,0.978,0,1.465l-7.088,7.089C24.855,48.594,24.613,48.688,24.386,48.688z"/>
	<path fill="#FFFFFF" d="M68.937,0.086c0.227,0,0.468,0.094,0.732,0.279l23.288,23.292c0.487,0.487,0.487,0.975,0,1.462 L69.669,48.408c-0.487,0.487-0.978,0.487-1.465,0l-7.085-7.089c-0.487-0.487-0.487-0.974,0-1.465l15.468-15.468L61.12,8.919 c-0.487-0.487-0.487-0.975,0-1.465l7.085-7.089C68.468,0.18,68.713,0.086,68.937,0.086z"/>
</g>
</svg>