<?xml version="1.0" encoding="utf-8"?>
<!-- Generator: Adobe Illustrator 15.1.0, SVG Export Plug-In . SVG Version: 6.00 Build 0)  -->
<!DOCTYPE svg PUBLIC "-//W3C//DTD SVG 1.1//EN" "http://www.w3.org/Graphics/SVG/1.1/DTD/svg11.dtd">
<svg version="1.1" id="Layer_1" xmlns="http://www.w3.org/2000/svg" xmlns:xlink="http://www.w3.org/1999/xlink" x="0px" y="0px"
	 width="27.399px" height="20.552px" viewBox="0 0 27.399 20.552" enable-background="new 0 0 27.399 20.552" xml:space="preserve">
<g>
	<path fill="#FFFFFF" d="M1.078,18.554c-0.19,0.19-0.36,0.285-0.507,0.285H0.444C0.147,18.755,0,18.575,0,18.3
		c0.147-3.91,1.411-6.987,3.79-9.228s5.681-3.362,9.91-3.362V0.573c0-0.232,0.106-0.401,0.317-0.507
		c0.211-0.105,0.412-0.084,0.603,0.063l12.558,9.704c0.148,0.106,0.222,0.254,0.222,0.444c0,0.19-0.074,0.338-0.222,0.444
		l-12.558,9.704c-0.085,0.085-0.201,0.127-0.349,0.127c-0.042,0-0.126-0.021-0.253-0.063c-0.211-0.105-0.317-0.274-0.317-0.508
		v-5.137c-2.98,0-5.581,0.307-7.801,0.92S2.072,17.307,1.078,18.554z"/>
</g>
</svg>
