<?xml version="1.0" encoding="utf-8"?>
<!-- Generator: Adobe Illustrator 15.1.0, SVG Export Plug-In . SVG Version: 6.00 Build 0)  -->
<!DOCTYPE svg PUBLIC "-//W3C//DTD SVG 1.1//EN" "http://www.w3.org/Graphics/SVG/1.1/DTD/svg11.dtd">
<svg version="1.1" id="Layer_1" xmlns="http://www.w3.org/2000/svg" xmlns:xlink="http://www.w3.org/1999/xlink" x="0px" y="0px"
	 width="27.417px" height="40.134px" viewBox="0 0 27.417 40.134" enable-background="new 0 0 27.417 40.134" xml:space="preserve">
<g>
	<path fill="#FFFFFF" d="M1.097,18.554c-0.19,0.19-0.36,0.285-0.507,0.285H0.462c-0.296-0.084-0.444-0.264-0.444-0.539
		c0.147-3.91,1.411-6.987,3.79-9.228s5.681-3.362,9.91-3.362V0.573c0-0.232,0.106-0.401,0.317-0.507
		c0.211-0.105,0.412-0.084,0.603,0.063l12.558,9.704c0.148,0.106,0.222,0.254,0.222,0.444c0,0.19-0.074,0.338-0.222,0.444
		l-12.558,9.704c-0.085,0.085-0.201,0.127-0.349,0.127c-0.042,0-0.126-0.021-0.253-0.063c-0.211-0.105-0.317-0.274-0.317-0.508
		v-5.137c-2.98,0-5.581,0.307-7.801,0.92S2.09,17.307,1.097,18.554z"/>
</g>
<g>
	<path fill="#121212" d="M13.944,37.208c0.062,0.086,0.093,0.166,0.093,0.24s-0.031,0.155-0.093,0.241l-2.352,2.352
		c-0.086,0.062-0.167,0.093-0.241,0.093c-0.074,0-0.155-0.03-0.241-0.093l-4.093-4.093l-4.093,4.093
		c-0.086,0.062-0.167,0.093-0.241,0.093c-0.074,0-0.154-0.03-0.241-0.093L0.093,37.69C0.031,37.604,0,37.523,0,37.449
		s0.031-0.154,0.093-0.24l4.092-4.093l-4.092-4.093C0.031,28.937,0,28.856,0,28.782c0-0.074,0.031-0.154,0.093-0.241l2.352-2.352
		c0.086-0.062,0.167-0.093,0.241-0.093c0.074,0,0.154,0.031,0.241,0.093l4.093,4.092l4.093-4.092
		c0.086-0.062,0.167-0.093,0.241-0.093c0.074,0,0.154,0.031,0.241,0.093l2.352,2.352c0.062,0.086,0.093,0.167,0.093,0.241
		c0,0.074-0.031,0.155-0.093,0.241l-4.092,4.093L13.944,37.208z"/>
</g>
</svg>
